FILE "Lunar - Eternal Blue Rev 19941112 (1994)(Game Arts)(JP).img" BINARY
  TRACK 01 MODE1/2352
    INDEX 01 00:00:00
  TRACK 02 AUDIO
    PREGAP 00:02:00
    INDEX 01 43:21:14
  TRACK 03 AUDIO
    INDEX 00 48:07:68
    INDEX 01 48:09:67
  TRACK 04 AUDIO
    INDEX 00 49:14:47
    INDEX 01 49:16:46
